# xmcd
#
# Track frame offsets:
#	182
#	16472
#	30352
#	43245
#	60427
#	79102
#	93182
#	106462
#	118557
#	141435
#	152305
#	169192
#
# Disc length: 2451 seconds
#
# Revision: 1
# Processed by: cddbd v1.5.2PL0 Copyright (c) Steve Scherf et al.
# Submitted via: EasyCDDAExtractor 16.0.9.1
#
DISCID=8e09910c
DTITLE=Michal Tučný - Stodola Michala Tučného
DYEAR=1983
DGENRE=Country
TTITLE0=Ještě dlouhou cestu mám
TTITLE1=Feleena
TTITLE2=Projíždím
TTITLE3=Oskar
TTITLE4=Osada U tří klád
TTITLE5=Máš mě přečtenýho
TTITLE6=Ráno budem moudřejší
TTITLE7=Rád se brouzdám rosou
TTITLE8=Na to mám
TTITLE9=Obyčejná štreka
TTITLE10=Řeknu vám
TTITLE11=Diggy liggy
EXTD=
EXTT0=
EXTT1=
EXTT2=
EXTT3=
EXTT4=
EXTT5=
EXTT6=
EXTT7=
EXTT8=
EXTT9=
EXTT10=
EXTT11=
PLAYORDER=
